<?xml version="1.0" encoding="UTF-8"?> <svg xmlns="http://www.w3.org/2000/svg" width="205" height="28" fill="none"> <path d="M126.165.722h-12.551v26.682h12.551V.723zm-29.18 19.676S89.158 1.064 89.158.71h-14.28l11.358 26.682h13.72L110.62.722h-6.184l-7.45 19.676zm-73.527-2.952L12.466.722H0v26.67h12.466V10.579l11.04 16.813h12.405V.722H23.458v16.724zm169.076 0L181.554.722h-12.465V27.38h12.465v-16.8l11.041 16.813H205V.722h-12.466v16.724zM147.067 5.334h3.554c2.472 0 4.919.9 4.919 3.13-.037 2.115-1.571 3.509-3.908 3.509h-9.508l-.012-3.054c0-2.686 2.739-3.585 4.955-3.585zm8.302 11.517c5.588 0 9.8-1.635 9.8-6.31V7.754c0-5.562-5.637-7.754-16.982-7.754-12.308 0-17.469 2.56-17.469 10.174v7.88c0 8.641 8.107 9.82 18.102 9.82 10.42 0 15.253-1.889 15.253-1.889v-5.713c-3.847 1.317-8.947 2.267-14.109 2.267-2.715 0-6.257-.418-7.267-.975-.609-.33-1.011-1.178-1.011-1.99l-.012-2.723h13.695zm-99.895 6.018c-2.495 0-4.248-1.533-4.285-3.7.037-2.204 2.544-3.459 4.857-3.459h7.183l.012 2.826c0 2.648-4.2 4.333-7.767 4.333zm19.77 4.535c-1.218-1.203-1.327-3.56-1.327-5.637V10.414a13.433 13.433 0 0 0-.097-1.38c-.207-2.839-.877-4.194-2.508-5.778-1.62-1.558-5.235-3.13-14.17-3.13H55.9c-7.048 0-13.877 1.888-13.877 1.888v5.917c5.125-1.38 7.973-2.23 13.877-2.23 2.423.051 4.857.304 5.88.875.864.494 1.4 1.47 1.4 2.305l.012 1.749h-10.03c-6.538 0-13.136 1.926-13.136 8.374v.786c0 5.866 6.282 8.21 12.685 8.21 4.662 0 8.12-.735 10.688-1.9.049.658.183 1.368.365 1.304h11.48z" fill="#1B226C"></path> </svg> 